<?xml version="1.0" encoding="UTF-8"?> <svg xmlns="http://www.w3.org/2000/svg" width="2410" height="1611" viewBox="0 0 2410 1611" fill="none"><path d="M803.079 0C908.538 0 1012.94 20.8237 1110.36 61.2957C1207.77 101.768 1296.3 161.075 1370.84 235.871C1445.42 310.637 1504.53 399.417 1544.91 497.146C1585.27 594.883 1606.04 699.598 1606.05 805.343C1606.05 1131.08 1410.4 1424.72 1110.36 1549.36C810.31 1674 464.946 1605.11 235.316 1374.78C5.68579 1144.46 -63.0134 798.08 61.2478 497.146C185.539 196.213 478.324 0 803.079 0ZM803.079 1046.91C834.717 1046.94 866.053 1040.73 895.311 1028.62C924.568 1016.5 951.114 998.692 973.501 976.241C995.889 953.79 1013.61 927.15 1025.72 897.829C1037.81 868.484 1044.01 837.05 1043.98 805.312C1043.98 707.583 985.282 619.497 895.28 582.098C805.278 544.7 701.657 565.373 632.777 634.474C563.897 703.575 543.287 807.482 580.56 897.768C617.832 988.054 705.695 1046.91 803.109 1046.91H803.079Z" fill="#00AEEF"></path><path d="M1705.6 604.007C1909.62 662.892 2150.43 604.007 2150.43 604.007C2080.55 910.034 1858.91 1101.7 1539.34 1125.02C1508.53 1196.75 1467.44 1263.61 1417.36 1323.49C1367.33 1383.32 1308.85 1435.53 1243.75 1478.48C1178.66 1521.39 1107.71 1554.57 1033.07 1576.96C958.435 1599.35 880.968 1610.69 803.079 1610.66L1043.98 842.771C1291.6 53.4906 1418.54 0.0301208 2005.8 0.0301208H2409.01C2341.58 298.01 2109.09 525.624 1705.63 604.007H1705.6Z" fill="#008CCF"></path></svg> 