<?xml version="1.0" encoding="UTF-8"?> <!-- Generator: Adobe Illustrator 26.0.2, SVG Export Plug-In . SVG Version: 6.00 Build 0) --> <svg xmlns="http://www.w3.org/2000/svg" xmlns:xlink="http://www.w3.org/1999/xlink" version="1.1" id="Layer_1" x="0px" y="0px" viewBox="0 0 67.3 62.6" style="enable-background:new 0 0 67.3 62.6;" xml:space="preserve"> <style type="text/css"> .st0{fill:#FFFFFF;} </style> <path class="st0" d="M14.6,48.7H18c0.2,0,0.5,0.1,0.7,0.1c1.2,0.3,2.1,1.3,2.3,2.5c0.1,0.7,0.1,1.4,0,2.1c-0.1,0.7-0.4,1.3-1,1.7 l-0.2,0.1c0.7,0.4,1.2,1.1,1.2,1.9c0.1,0.9,0.1,1.9-0.1,2.8c-0.1,0.8-0.6,1.5-1.3,2c-0.5,0.3-1,0.5-1.6,0.5c-1.1,0-2.2,0-3.3,0h-0.1 L14.6,48.7z M16.6,56v4.4c0.4,0,0.8,0,1.1,0c0.7,0,1.3-0.5,1.3-1.2c0.1-0.7,0.1-1.3,0-2c0-0.6-0.4-1-1-1.1 C17.6,56.1,17.1,56.1,16.6,56 M16.6,54.3c0.5,0,0.9,0,1.4-0.1c0.5,0,1-0.4,1.1-0.9c0.2-0.6,0.2-1.2,0-1.8c-0.1-0.4-0.4-0.7-0.7-0.9 c-0.5-0.1-1.1-0.2-1.7-0.1L16.6,54.3z"></path> <path class="st0" d="M22.6,48.7H25c0.5,0,1,0,1.4,0c1.4,0,2.6,1.1,2.8,2.5c0.2,1,0.2,2.1,0,3.2c-0.2,0.7-0.7,1.3-1.3,1.7l-0.2,0.1 c0.7,2.1,1.4,4.2,2.1,6.3h-2.1c-0.6-2-1.2-3.9-1.8-5.9h-1.2v5.9h-2L22.6,48.7z M24.6,54.8c0.5,0,1,0,1.5,0c0.6,0,1-0.4,1.1-1 c0.1-0.7,0.1-1.3,0-2c0-0.6-0.5-1.1-1.1-1.1c-0.5-0.1-1-0.1-1.5-0.1V54.8z"></path> <path class="st0" d="M46.1,58.6h2c0,0.2,0,0.3,0,0.5s0,0.4,0.1,0.6c0.1,0.6,0.7,1.1,1.3,1c0.1,0,0.3,0,0.4,0c0.5,0,1-0.5,1-1 c0.1-0.7,0.1-1.4,0-2.1c0-0.3-0.3-0.6-0.6-0.8c-0.5-0.2-1.1-0.5-1.7-0.7c-0.3-0.1-0.6-0.3-0.9-0.4c-0.6-0.3-1.1-0.9-1.3-1.7 c-0.3-1.2-0.3-2.4,0.2-3.5s1.5-1.8,2.7-1.8c0.9-0.1,1.8,0.2,2.5,0.9c0.6,0.6,1,1.4,1,2.3v0.9h-2c0-0.1,0-0.3,0-0.4 c0-0.3-0.1-0.5-0.1-0.8c-0.1-0.6-0.7-1-1.3-0.9c-0.7,0-1.2,0.6-1.2,1.2c0,0.4,0,0.8,0,1.3c0,0.4,0.2,0.7,0.5,0.8 c0.2,0.1,0.5,0.3,0.7,0.4c0.5,0.2,1.1,0.4,1.6,0.6c1,0.4,1.7,1.3,1.7,2.3c0.1,1,0.1,2-0.1,3c-0.3,1.4-1.5,2.3-2.8,2.4 c-0.8,0.1-1.6-0.1-2.2-0.6c-0.9-0.5-1.4-1.5-1.5-2.5C46.1,59.1,46.1,58.8,46.1,58.6"></path> <path class="st0" d="M45.1,52.6h-2c0-0.3,0-0.6-0.1-0.8c0-0.1,0-0.1,0-0.2c-0.1-0.7-0.8-1.2-1.5-1.1c-0.1,0-0.1,0-0.2,0.1 c-0.4,0.1-0.7,0.3-0.8,0.7c-0.2,0.5-0.2,0.9-0.2,1.4c0,0.1,0,0.2,0,0.3c0,0.4,0.2,0.8,0.6,1c0.5,0.2,0.9,0.4,1.4,0.6 c0.3,0.1,0.6,0.2,0.9,0.4c0.9,0.3,1.5,1.1,1.6,2.1c0.2,1,0.1,2.1-0.1,3.1c-0.3,1.4-1.5,2.4-2.9,2.4c-0.8,0.1-1.5-0.1-2.2-0.6 c-0.9-0.6-1.5-1.6-1.5-2.7c0-0.2,0-0.5,0-0.8h2V59c0,0.2,0,0.4,0.1,0.6c0.1,0.6,0.7,1.1,1.3,1c0.1,0,0.3,0,0.4,0 c0.5-0.1,0.9-0.5,1-1c0.1-0.6,0.1-1.3,0-1.9c0-0.4-0.3-0.8-0.6-0.9c-0.6-0.3-1.2-0.5-1.8-0.8c-0.3-0.1-0.6-0.3-0.9-0.4 c-0.6-0.3-1-0.9-1.2-1.5c-0.3-1.1-0.3-2.2,0-3.3c0.4-1.3,1.6-2.2,3-2.1c0.7,0,1.4,0.2,2,0.5c0.9,0.6,1.5,1.6,1.5,2.6 C45.1,52,45.1,52.3,45.1,52.6"></path> <path class="st0" d="M37.9,62.4H36c-0.2-1-0.4-2-0.6-3h-2.7c-0.2,1-0.4,2-0.6,3h-2c1-4.6,2.1-9.2,3.1-13.8h1.7 C35.8,53.3,36.9,57.9,37.9,62.4 M35,57.6c-0.3-1.7-0.6-3.3-1-4.9l0,0c-0.3,1.6-0.6,3.3-1,4.9H35z"></path> <polygon class="st0" points="54.3,48.7 60.2,48.7 60.2,50.5 56.3,50.5 56.3,54.6 59.7,54.6 59.7,56.4 56.3,56.4 56.3,60.5 60.2,60.5 60.2,62.4 54.3,62.4 "></polygon> <polygon class="st0" points="63.4,60.5 67.3,60.5 67.3,62.4 61.5,62.4 61.5,48.7 67.3,48.7 67.3,50.5 63.4,50.5 63.4,54.6 66.8,54.6 66.8,56.4 63.4,56.4 "></polygon> <path class="st0" d="M8.8,59.5H6.1C6.1,59.7,6,59.8,6,60H4.1c0.8-3.8,1.7-7.5,2.5-11.3h1.7c1,4.6,2,9.2,3.1,13.8h-2 C9.1,61.4,8.9,60.4,8.8,59.5 M8.4,57.6c-0.3-1.7-0.6-3.3-0.9-4.9l0,0l-1,4.9H8.4L8.4,57.6z"></path> <path class="st0" d="M5.6,62.4H0V48.7h2v11.8h3.9C5.8,61.1,5.7,61.8,5.6,62.4"></path> <path class="st0" d="M57.8,48h-2c0.3-0.7,0.5-1.3,0.8-2h1.9C58.3,46.7,58.1,47.3,57.8,48"></path> <path class="st0" d="M33.7,0c12.2,0,22,10,21.9,22.2C55.5,34.2,45.6,44,33.5,43.9c-12.1-0.1-21.9-10-21.8-22.2 C11.8,9.7,21.6,0,33.7,0z M44.3,38.6l-0.1,0.1c-0.1,0-0.2,0.1-0.3,0.1c-3.1,1.1-6.2,1.5-9.3,0.7c-3.2-0.6-6.2-2.5-8.3-4.9 c-1.3-1.5-2.1-3.2-2.5-5.1c-0.4-2-2.5-3.4-4.5-3c-2.1,0.3-3.4,2.4-3,4.5c0.1,0.4,0.2,0.9,0.5,1.3c1,1.5,2,2.9,3.3,4.1 c4.7,4.3,10.3,6,16.6,5.1c2.6-0.4,5-1.3,7.3-2.7C44.1,38.8,44.2,38.7,44.3,38.6L44.3,38.6L44.3,38.6L44.3,38.6L44.3,38.6z M44.9,35.8c-0.5,0.2-1.2,0.3-1.7,0.5c-1.5,0.3-3,0.4-4.4,0.2c-2.5-0.4-4.8-1.6-6.4-3.5c-1.2-1.3-2-2.9-2.5-4.6 c-0.2-0.9-1.2-1.5-2.1-1.4c-1.1,0.1-1.8,1.1-1.7,2.1l0,0c0,0.1,0,0.2,0.1,0.3c0.2,0.7,0.5,1.5,0.9,2.1c0.9,1.4,1.9,2.6,3.3,3.5 c2.2,1.6,4.8,2.5,7.6,2.5c1.2,0,2.2-0.1,3.3-0.3c1.3-0.2,2.5-0.6,3.6-1.3C44.8,36.1,44.9,36,44.9,35.8L44.9,35.8L44.9,35.8 L44.9,35.8z M24.7,26.4c0.1-0.1,0.1-0.1,0.2-0.2c1.2-1.2,2.5-1.6,4.1-1.2c1.6,0.4,2.6,1.5,3,3.1c0,0.1,0.1,0.3,0.1,0.4 c0.4,1.3,1.2,2.5,2.2,3.4c2.1,2,4.6,2.8,7.5,2.5c2.5-0.3,4.7-1.3,6.7-2.8c2.2-1.6,3.7-3.9,4.5-6.4c0.5-1.9,0.5-3.9,0.3-5.8 c-0.3-2.2-1-4.4-2-6.4c-2-4-5.1-7-9.2-8.9C38.7,2.6,35,1.9,31.2,2.5c-2.2,0.2-4.4,1-6.4,1.9c-6.5,3.2-10.7,9.7-11,17 c-0.1,1.5,0.1,3.1,0.4,4.5c0.1,0.5,0.2,1.1,0.4,1.6c1.1-1.9,2.7-3,4.8-3.2C21.5,24.1,23.2,24.8,24.7,26.4z"></path> </svg> 