<?xml version="1.0" encoding="UTF-8"?> <svg xmlns="http://www.w3.org/2000/svg" id="Layer_1" data-name="Layer 1" viewBox="0 0 235.02 235.08"><defs><style>.cls-1{fill:none;stroke:#fff;stroke-miterlimit:10;}</style></defs><path class="cls-1" d="M117.59.5c65,.09,117.51,53.2,116.93,118A117,117,0,1,1,117.59.5Zm56.69,205.89-.63.27c-.53.13-1.12.27-1.65.45-16.27,5.64-32.9,7.7-49.84,3.8A79.77,79.77,0,0,1,78,184.47a57.34,57.34,0,0,1-13.09-27.11,20.46,20.46,0,1,0-37.33,15.06,105,105,0,0,0,17.88,21.82C70.62,217,100,226.42,133.72,221.67a101.75,101.75,0,0,0,38.9-14.21c.36-.26.72-.58,1.08-.89l.72-.27-.09-.05.09,0Zm3.23-14.66c-3.09.9-6.19,1.84-9.28,2.6a59.22,59.22,0,0,1-23.53.94,58.52,58.52,0,0,1-34.42-18.55,54.89,54.89,0,0,1-13.35-24.29c-1.12-4.66-6.5-8.25-11.3-7.62a10.45,10.45,0,0,0-9.18,11.65,8.47,8.47,0,0,0,.31,1.53,45.35,45.35,0,0,0,4.62,11.47,57.92,57.92,0,0,0,17.47,18.82,69.34,69.34,0,0,0,40.43,13,86.44,86.44,0,0,0,17.93-1.88,81.93,81.93,0,0,0,19.45-6.77,3.19,3.19,0,0,0,.85-.9l.4.05v-.09ZM69.77,141.27c.36-.36.67-.72,1-1.08,6-6.05,13.23-8.38,21.52-6.18,8.47,2.24,13.85,7.8,16,16.36a20.05,20.05,0,0,0,.76,2.46,46.54,46.54,0,0,0,11.78,18.11c11.3,10.66,24.7,15.06,40,13a77.52,77.52,0,0,0,35.67-14.7A62.87,62.87,0,0,0,220.62,135c2.92-10.13,2.78-20.48,1.48-30.79a102.24,102.24,0,0,0-10.58-34.28c-11-21.34-27.33-37.34-49-47.64a103.25,103.25,0,0,0-58-9.33A101.18,101.18,0,0,0,70.44,23.22,105.56,105.56,0,0,0,12,113.89a102.68,102.68,0,0,0,2,24.24c.58,2.87,1.35,5.65,2.11,8.83,5.82-10.08,14-16.09,25.36-17.25S62.19,132.75,69.77,141.27Z" transform="translate(0 0)"></path></svg> 